<?xml version="1.0" encoding="utf-8"?>
<!-- Generator: Adobe Illustrator 27.0.0, SVG Export Plug-In . SVG Version: 6.00 Build 0)  -->
<svg version="1.1" id="Layer_1" xmlns="http://www.w3.org/2000/svg" xmlns:xlink="http://www.w3.org/1999/xlink" x="0px" y="0px"
	 viewBox="0 0 192 192" style="enable-background:new 0 0 192 192;" xml:space="preserve">
<style type="text/css">
	.st0{fill:url(#SVGID_1_);}
	.st1{fill:url(#SVGID_00000079455852469123143010000017316385882280879788_);}
	.st2{fill:#F07820;}
	.st3{fill:#F7F8F8;}
</style>
<g>
	<g>
		<g>
			
				<linearGradient id="SVGID_1_" gradientUnits="userSpaceOnUse" x1="48.7003" y1="130.8174" x2="48.7003" y2="55.9685" gradientTransform="matrix(1 0 0 -1 0 193.2756)">
				<stop  offset="0" style="stop-color:#F07820"/>
				<stop  offset="1" style="stop-color:#F5B815"/>
			</linearGradient>
			<path class="st0" d="M51,72.3c2.3,0,4.4,0.2,6.3,0.6s3.5,1,4.9,1.9c1.3,0.9,2.4,2.1,3.2,3.6s1.1,3.4,1.2,5.7
				c0,2.4-0.5,4.4-1.6,6.1c-1.1,1.6-2.7,3-4.8,4c3,0.8,5.2,2.3,6.7,4.4c1.5,2.1,2.2,4.7,2.2,7.7c0,2.4-0.4,4.5-1.4,6.3
				s-2.2,3.2-3.8,4.4c-1.6,1.1-3.4,2-5.4,2.5c-2,0.6-4.1,0.8-6.3,0.9l-23.3,0.2l-0.4-48.1L51,72.3z M49.9,91.8
				c1.9,0,3.4-0.5,4.6-1.4c1.2-0.9,1.8-2.4,1.8-4.4c0-1.1-0.2-2-0.6-2.8c-0.4-0.7-1-1.3-1.6-1.7s-1.4-0.7-2.3-0.8
				c-0.9-0.2-1.8-0.2-2.7-0.2l-9.9,0.1l0.1,11.2L49.9,91.8z M50.6,112.1c1,0,2-0.1,3-0.3c0.9-0.2,1.8-0.6,2.5-1
				c0.7-0.5,1.3-1.1,1.7-1.9s0.6-1.8,0.6-3.1c0-2.5-0.7-4.2-2.1-5.3c-1.4-1-3.2-1.6-5.5-1.5l-11.5,0.1l0.1,13.2L50.6,112.1z"/>
			
				<linearGradient id="SVGID_00000168816607944735184560000010472251630050688690_" gradientUnits="userSpaceOnUse" x1="140.075" y1="130.8174" x2="140.075" y2="55.9685" gradientTransform="matrix(1 0 0 -1 0 193.2756)">
				<stop  offset="0" style="stop-color:#F07820"/>
				<stop  offset="1" style="stop-color:#F5B815"/>
			</linearGradient>
			<path style="fill:url(#SVGID_00000168816607944735184560000010472251630050688690_);" d="M145.2,71.5l18.4,47.9l-11,0.1
				l-3.7-10.7l-18,0.2l-3.7,10.7l-10.6,0.1l17.8-48.2L145.2,71.5z M146.1,101l-6.2-17.6h-0.1l-6.1,17.7L146.1,101z"/>
		</g>
		<g>
			<g>
				<path class="st2" d="M71.5,96.5c-0.1-12.7,10.3-23,23-23c12.6,0,22.9,10.4,22.9,22.9c0,12.5-10.4,22.9-22.9,22.9
					C81.9,119.4,71.5,109.1,71.5,96.5z M88.7,85.8c0-2-1.2-3.3-2.8-3.3c-1.7,0-2.8,1.3-2.8,3.4c0,6.6,0,13.2,0,19.7
					c0,2.1,1.2,3.3,2.9,3.3c1.7,0,2.8-1.3,2.8-3.4c0-3.3,0-6.6,0-9.9C88.7,92.4,88.7,89.1,88.7,85.8z M98,90.9
					c0-1.9-0.8-3.2-2.8-3.4c-1.7-0.2-2.9,1.3-3,3.4c0,4.8,0,9.7,0,14.6c0,1.9,0.8,3.2,2.8,3.4c1.8,0.1,2.9-1.3,2.9-3.4
					c0-2.5,0-4.9,0-7.4C98,95.7,98,93.3,98,90.9z M101.6,105.9c0.1,1.9,1,3,2.9,3c1.8,0,2.8-1.2,2.8-2.9c0.1-3.4,0.1-6.7,0-10.1
					c0-1.8-1.1-3.1-2.9-3c-1.8,0-2.8,1.3-2.8,3.1c0,1.6,0,3.3,0,4.9C101.6,102.6,101.6,104.2,101.6,105.9z"/>
				<path class="st3" d="M88.7,95.7c0-3.3,0-6.6,0-9.9c0-2-1.2-3.3-2.8-3.3c-1.7,0-2.8,1.3-2.8,3.4c0,6.6,0,13.2,0,19.7
					c0,2.1,1.2,3.3,2.9,3.3c1.7,0,2.8-1.3,2.8-3.4C88.7,102.2,88.7,99,88.7,95.7z"/>
				<path class="st3" d="M98,98.1c0-2.4,0-4.8,0-7.2c0-1.9-0.8-3.2-2.8-3.4c-1.7-0.2-2.9,1.3-3,3.4c0,4.8,0,9.7,0,14.6
					c0,1.9,0.8,3.2,2.8,3.4c1.8,0.1,2.9-1.3,2.9-3.4C98,103,98,100.5,98,98.1z"/>
				<path class="st3" d="M101.6,101c0,1.6,0,3.3,0,4.9c0.1,1.9,1,3,2.9,3c1.8,0,2.8-1.2,2.8-2.9c0.1-3.4,0.1-6.7,0-10.1
					c0-1.8-1.1-3.1-2.9-3c-1.8,0-2.8,1.3-2.8,3.1C101.6,97.7,101.6,99.3,101.6,101z"/>
			</g>
		</g>
	</g>
</g>
</svg>
