<?xml version="1.0" encoding="UTF-8"?>
<svg data-bbox="26.1 253.1 600 145.8" viewBox="26.1 253.1 600 145.8" xmlns="http://www.w3.org/2000/svg" data-type="color">
    <g>
        <path fill="#ff7700" d="M171.9 326c0 40.262-32.638 72.9-72.9 72.9S26.1 366.262 26.1 326s32.638-72.9 72.9-72.9 72.9 32.638 72.9 72.9" data-color="1"/>
        <path d="M96.7 297.5c5 0 9.1 4.1 9.1 9.1v50.1c0 5-4.1 9.1-9.1 9.1s-9.1-4.1-9.1-9.1v-50.1c0-5 4.1-9.1 9.1-9.1m-29.6 17.1c5 0 9.1 4.1 9.1 9.1v33c0 5-4.1 9.1-9.1 9.1s-9.1-4.1-9.1-9.1v-33c0-5 4-9.1 9.1-9.1m59.2-33c5 0 9.1 4.1 9.1 9.1v66.1c0 5-4.1 9.1-9.1 9.1s-9.1-4.1-9.1-9.1v-66.1c0-5 4.1-9.1 9.1-9.1" fill="#ffffff" data-color="2"/>
        <path d="M210.1 295.2c-1.3 0-2.7-.3-3.9-.8s-2.3-1.2-3.2-2.2c-.9-.9-1.6-2-2.2-3.2-.5-1.2-.8-2.5-.8-4 0-1.4.3-2.8.8-4s1.2-2.3 2.2-3.2c.9-.9 2-1.7 3.2-2.2s2.6-.8 3.9-.8c2.8 0 5.2 1 7.2 2.9 2 2 3 4.3 3 7.1s-1 5.2-3 7.1c-2 2.3-4.4 3.3-7.2 3.3m-7.8 67.3v-58.8H218v58.8zm66.8 1.3v-8.4c-1.4 2.5-3.7 4.6-6.7 6.4s-6.8 2.6-11.3 2.6c-3.8 0-7.3-.8-10.7-2.3-3.4-1.6-6.4-3.8-9-6.5-2.6-2.8-4.7-6.1-6.2-9.9s-2.3-8-2.3-12.6.8-8.8 2.3-12.6 3.6-7.1 6.2-9.9c2.6-2.7 5.6-4.9 9-6.5s7-2.4 10.7-2.3c4.5 0 8.2.9 11.3 2.6 3 1.8 5.3 3.9 6.7 6.4v-7.1h15.7v84.7h-15.7zm-14.8-13.9c2.1 0 4.1-.4 5.9-1.1 1.9-.8 3.6-1.9 5-3.3s2.6-3.2 3.5-5.3 1.3-4.4 1.3-7.1-.4-5-1.3-7.1-2-3.8-3.5-5.3c-1.4-1.4-3.1-2.5-5-3.3s-3.9-1.1-5.9-1.1c-2.1 0-4.1.4-5.9 1.2-1.9.8-3.6 1.9-5 3.4-1.4 1.4-2.6 3.2-3.5 5.3s-1.3 4.4-1.3 7 .4 4.9 1.3 7 2 3.8 3.5 5.3c1.4 1.4 3.1 2.6 5 3.4 1.9.6 3.9 1 5.9 1m86.6-48.1c4.6 0 8.7.8 12.5 2.3 3.8 1.6 7.1 3.7 9.8 6.5 2.8 2.8 4.9 6.1 6.5 9.9s2.3 8 2.3 12.6-.8 8.8-2.3 12.6c-1.6 3.8-3.7 7.1-6.5 9.9s-6 4.9-9.8 6.5-8 2.3-12.5 2.3c-4.6 0-8.7-.8-12.5-2.3-3.8-1.6-7.1-3.7-9.8-6.5-2.8-2.8-4.9-6.1-6.5-9.9s-2.3-8-2.3-12.6.8-8.8 2.3-12.6c1.6-3.8 3.7-7.1 6.5-9.9s6-4.9 9.8-6.5c3.8-1.5 8-2.3 12.5-2.3m0 48.1c2 0 3.9-.4 5.8-1.1 1.9-.8 3.6-1.9 5-3.3s2.6-3.2 3.4-5.3 1.3-4.4 1.3-7.1-.4-5-1.3-7.1c-.8-2.1-2-3.8-3.4-5.3-1.4-1.4-3.1-2.5-5-3.3-1.8-.8-3.8-1.1-5.8-1.1-2.1 0-4 .4-5.9 1.1-1.8.8-3.5 1.9-4.9 3.3s-2.6 3.2-3.4 5.3-1.3 4.4-1.3 7.1.4 5 1.3 7.1c.8 2.1 2 3.8 3.4 5.3 1.4 1.4 3.1 2.5 4.9 3.3 1.9.7 3.9 1.1 5.9 1.1m34.7-46.2h15.7v7.1c1.4-2.5 3.7-4.6 6.7-6.4s6.8-2.6 11.3-2.6c3.8 0 7.3.8 10.7 2.3 3.4 1.6 6.4 3.8 9 6.5 2.6 2.8 4.7 6.1 6.2 9.9s2.3 8 2.3 12.6-.8 8.8-2.3 12.6-3.6 7.1-6.2 9.9c-2.6 2.7-5.6 4.9-9 6.5s-7 2.4-10.7 2.3c-4.5 0-8.2-.9-11.3-2.6-3-1.8-5.3-3.9-6.7-6.4v33h-15.7zm30.5 46.2c2.1 0 4.1-.4 5.9-1.2 1.9-.8 3.6-1.9 5-3.4 1.4-1.4 2.6-3.2 3.5-5.3s1.3-4.4 1.3-7-.4-4.9-1.3-7-2-3.8-3.5-5.3c-1.4-1.4-3.1-2.6-5-3.4s-3.9-1.2-5.9-1.2c-2.1 0-4.1.4-5.9 1.1-1.9.8-3.6 1.9-5 3.3s-2.6 3.2-3.5 5.3-1.3 4.4-1.3 7.1.4 5 1.3 7.1 2 3.8 3.5 5.3c1.4 1.4 3.1 2.5 5 3.3 1.8.9 3.8 1.3 5.9 1.3m40-32.8h-10.3v-13.4h10.3v-18h15.7v18h14.4v13.4h-14.4v22.8c0 1.4.1 2.6.4 3.8s.8 2.1 1.6 2.9c1.1 1.3 2.7 1.9 4.8 1.9 1.4 0 2.4-.1 3.2-.4s1.6-.7 2.3-1.1l4.4 13.8c-1.9.9-3.9 1.6-5.9 2-2.1.4-4.5.7-7 .7-3 0-5.6-.5-8-1.4s-4.3-2.2-5.9-3.8c-3.8-3.6-5.6-8.7-5.6-15.4zm45.5-21.9c-1.3 0-2.7-.3-3.9-.8s-2.3-1.2-3.2-2.2c-.9-.9-1.6-2-2.2-3.2-.5-1.2-.8-2.5-.8-4 0-1.4.3-2.8.8-4s1.2-2.3 2.2-3.2c.9-.9 2-1.7 3.2-2.2s2.6-.8 3.9-.8c2.8 0 5.2 1 7.2 2.9 2 2 3 4.3 3 7.1s-1 5.2-3 7.1-4.4 3.3-7.2 3.3m-7.8 67.3v-58.8h15.7v58.8zm51.8-60.7c4.6 0 8.7.8 12.5 2.3 3.8 1.6 7.1 3.7 9.8 6.5 2.8 2.8 4.9 6.1 6.5 9.9s2.3 8 2.3 12.6-.8 8.8-2.3 12.6c-1.6 3.8-3.7 7.1-6.5 9.9s-6 4.9-9.8 6.5-8 2.3-12.5 2.3c-4.6 0-8.7-.8-12.5-2.3-3.8-1.6-7.1-3.7-9.8-6.5-2.8-2.8-4.9-6.1-6.5-9.9s-2.3-8-2.3-12.6.8-8.8 2.3-12.6c1.6-3.8 3.7-7.1 6.5-9.9s6-4.9 9.8-6.5c3.8-1.5 8-2.3 12.5-2.3m0 48.1c2 0 3.9-.4 5.8-1.1 1.9-.8 3.6-1.9 5-3.3s2.6-3.2 3.4-5.3 1.3-4.4 1.3-7.1-.4-5-1.3-7.1c-.8-2.1-2-3.8-3.4-5.3-1.4-1.4-3.1-2.5-5-3.3-1.8-.8-3.8-1.1-5.8-1.1-2.1 0-4 .4-5.9 1.1-1.8.8-3.5 1.9-4.9 3.3s-2.6 3.2-3.4 5.3-1.3 4.4-1.3 7.1.4 5 1.3 7.1c.8 2.1 2 3.8 3.4 5.3 1.4 1.4 3.1 2.5 4.9 3.3 1.9.7 3.8 1.1 5.9 1.1m49.3-38.5h1c1.8-3 4.3-5.3 7.4-7s6.7-2.6 10.7-2.6c3.7 0 6.9.6 9.7 1.8q4.2 1.8 6.9 5.1c1.8 2.2 3.2 4.8 4.1 7.9s1.4 6.5 1.4 10.3v35.6h-15.7v-33.7c0-4.2-.9-7.4-2.8-9.4s-4.6-3.1-8.2-3.1c-2.2 0-4.1.5-5.7 1.4s-3.1 2.2-4.2 3.7c-1.2 1.6-2 3.4-2.6 5.5s-.9 4.4-.9 6.8v28.8h-15.7v-58.8h14.8z" fill="#ffffff" data-color="2"/>
    </g>
</svg>
